<?xml version="1.0" encoding="UTF-8" standalone="no"?>
<svg width="1024px" height="1024px" viewBox="0 0 1024 1024" version="1.1" xmlns="http://www.w3.org/2000/svg" xmlns:xlink="http://www.w3.org/1999/xlink" xmlns:sketch="http://www.bohemiancoding.com/sketch/ns">
    <!-- Generator: Sketch 3.4.2 (15855) - http://www.bohemiancoding.com/sketch -->
    <title>Untitled</title>
    <desc>Created with Sketch.</desc>
    <defs>
        <linearGradient x1="50%" y1="0%" x2="50%" y2="100%" id="linearGradient-1">
            <stop stop-color="#3EADF7" offset="0%"></stop>
            <stop stop-color="#326CEA" offset="100%"></stop>
        </linearGradient>
    </defs>
    <g id="Page-1" stroke="none" stroke-width="1" fill="none" fill-rule="evenodd" sketch:type="MSPage">
        <path d="M1020.92509,500.195264 L968.515061,406.345725 L975.077951,296.755372 C975.566677,288.492041 971.819779,280.538286 965.18707,275.799373 L877.774956,213.193324 L838.467431,112.628339 C835.441985,104.912721 828.692913,99.3641439 820.663845,97.9829531 L715.773962,80.0989125 L637.089095,6.27664107 C631.038203,0.632809351 622.543682,-1.36753607 614.724068,1.01382753 L511.998542,32.3049451 L409.249744,0.99001389 C401.383585,-1.3913497 392.912336,0.58518208 386.884717,6.25282743 L308.19985,80.0750988 L203.286694,97.9591394 C195.257626,99.3403303 188.531827,104.888907 185.506381,112.604526 L146.198857,213.16951 L58.8100144,275.775559 C52.177306,280.538286 48.4304076,288.468227 48.9191335,296.731559 L55.4587512,406.321911 L3.07199125,500.17145 C-1.02399708,507.50605 -1.02399708,516.483791 3.07199125,523.794577 L55.4587512,617.644116 L48.9191335,727.210655 C48.4304076,735.497801 52.177306,743.427741 58.7867417,748.190469 L146.198857,810.820331 L185.506381,911.385316 C188.531827,919.100934 195.280899,924.673325 203.286694,926.030702 L308.19985,943.914742 L386.884717,1017.73701 C392.935609,1023.35703 401.43013,1025.405 409.249744,1022.99983 L511.998542,991.684896 L614.747341,1022.99983 C616.934971,1023.66661 619.145874,1024 621.380049,1024 C627.128396,1024 632.76038,1021.80915 637.112368,1017.73701 L715.797235,943.914742 L820.687118,926.030702 C828.716186,924.649511 835.465258,919.124747 838.490704,911.385316 L877.798228,810.820331 L965.210343,748.190469 C971.843051,743.427741 975.58995,735.497801 975.101224,727.210655 L968.538334,617.644116 L1020.94837,523.794577 C1025.02108,516.507605 1025.02108,507.50605 1020.92509,500.195264 L1020.92509,500.195264 Z" id="Shape" fill="url(#linearGradient-1)" sketch:type="MSShapeGroup"></path>
        <path d="M269,553.586651 L299.491867,519.828249 L468.605254,672.456169 L715.871334,338.119995 L752.25,366.075234 L475.457247,739.849319 L269,553.586651 Z" id="Path" stroke="#FFFFFF" stroke-width="40.9090004" fill="#FFFFFF" sketch:type="MSShapeGroup"></path>
    </g>
</svg>